<svg version="1.1" id="Layer_1" xmlns="http://www.w3.org/2000/svg" xmlns:xlink="http://www.w3.org/1999/xlink" x="0px" y="0px"
	 width="100%" viewBox="0 0 1024 1024" enable-background="new 0 0 1024 1024" xml:space="preserve">
<path fill="#000000" opacity="1.000000" stroke="none" 
	d="
M627.000000,768.170166 
	C535.341064,768.168579 444.182098,768.166138 353.023163,768.164490 
	C345.554779,768.164368 345.562836,768.167297 345.591217,760.918762 
	C345.610809,755.919312 345.448242,750.913025 345.660522,745.922363 
	C345.819397,742.186646 344.279297,740.978516 340.661438,741.006226 
	C325.497040,741.122498 310.328766,740.890259 295.167114,741.123474 
	C290.257477,741.198914 288.217468,739.809265 288.574188,734.618835 
	C288.984528,728.647705 288.519958,722.621643 288.718323,716.628784 
	C288.835175,713.098938 287.373291,711.876892 284.012024,711.947754 
	C278.682068,712.060181 273.347198,711.948730 268.014435,711.917725 
	C260.952820,711.876709 260.897797,711.813721 260.881531,704.544861 
	C260.869995,699.378662 260.707825,694.207031 260.896729,689.048157 
	C261.033234,685.320251 259.511200,684.055054 255.879730,684.175110 
	C249.887054,684.373474 243.878922,684.086914 237.884552,684.258423 
	C234.170334,684.364624 232.960220,682.828674 232.969177,679.213806 
	C233.056702,643.883850 233.064285,608.553528 232.983887,573.223572 
	C232.974884,569.267944 234.116821,567.432251 238.415527,567.655762 
	C244.232742,567.958069 250.083008,567.578918 255.908005,567.793335 
	C259.641907,567.930725 260.834106,566.458984 260.804932,562.819275 
	C260.683258,547.655029 260.910156,532.487305 260.710999,517.324768 
	C260.653564,512.953125 262.042542,511.348602 266.446930,511.611481 
	C271.761139,511.928650 277.123627,511.444824 282.436523,511.772766 
	C287.133026,512.062683 288.866821,510.579102 288.773987,505.630829 
	C288.486511,490.304138 288.816650,474.966309 288.571259,459.638184 
	C288.503754,455.420746 290.007477,453.983002 293.963562,454.082520 
	C299.459473,454.220825 304.998169,453.760132 310.447998,454.286377 
	C314.954742,454.721588 315.869324,452.995575 315.722687,449.012604 
	C315.483704,442.522095 315.789856,436.012787 315.616425,429.518066 
	C315.522583,426.005890 316.996246,424.786621 320.351868,424.844238 
	C326.682404,424.952942 333.033997,424.550995 339.343811,424.922485 
	C344.175110,425.206909 345.482178,422.963837 345.474182,418.760864 
	C345.446259,404.097351 345.497253,389.433716 345.517487,374.770111 
	C345.519989,372.964447 345.517822,371.158783 345.517822,368.686523 
	C352.581299,368.686523 359.210663,368.500183 365.822937,368.756042 
	C369.822540,368.910828 371.093170,367.388611 370.952667,363.521942 
	C370.728912,357.364624 371.155975,351.181274 370.868469,345.029480 
	C370.649048,340.334717 372.644623,338.889221 377.038666,339.037445 
	C383.030365,339.239563 389.038788,338.910522 395.033783,339.060516 
	C398.734314,339.153015 400.067139,337.633087 399.958160,334.010620 
	C399.787964,328.350128 400.160736,322.669556 399.894073,317.016815 
	C399.663116,312.121552 401.755127,310.584473 406.410980,310.809998 
	C412.229645,311.091797 418.075989,310.748383 423.904907,310.894165 
	C427.113586,310.974396 428.313324,309.930542 428.154907,306.550018 
	C427.866486,300.396942 428.208099,294.215973 427.983185,288.057739 
	C427.831024,283.892487 429.499695,282.481506 433.581085,282.675720 
	C439.234375,282.944672 444.928406,282.458740 450.570831,282.823975 
	C455.541321,283.145660 457.019775,281.108246 456.719482,276.449493 
	C456.420013,271.803009 456.789398,267.117188 456.631744,262.456482 
	C456.521179,259.187439 457.464111,257.620422 461.098083,257.629517 
	C496.261566,257.717468 531.425415,257.709991 566.588928,257.630554 
	C570.075989,257.622681 571.346497,258.982971 571.265869,262.361786 
	C571.138733,267.691193 571.381409,273.029968 571.229370,278.358002 
	C571.137146,281.590454 572.375977,282.845062 575.609985,282.776489 
	C582.106445,282.638672 588.612000,282.879730 595.105774,282.688324 
	C598.726196,282.581573 600.284546,283.859131 600.180237,287.565369 
	C600.020874,293.226776 600.398193,298.911194 600.065491,304.557404 
	C599.789856,309.234955 601.177551,311.258514 606.171082,310.909363 
	C611.476562,310.538330 616.835571,311.009613 622.161682,310.829681 
	C625.954834,310.701569 627.599365,311.972382 627.438049,315.988098 
	C627.184021,322.310760 627.488892,328.654327 627.313782,334.982330 
	C627.217773,338.453644 628.568970,339.738037 632.004639,339.672089 
	C639.629517,339.525696 647.259216,339.626434 655.031799,339.626434 
	C656.717163,349.398163 655.673889,358.685822 655.717957,368.830109 
	C662.520569,368.830109 669.107605,368.824188 675.694702,368.831757 
	C682.292114,368.839325 682.306152,368.845245 682.310547,375.474915 
	C682.320129,389.807037 682.516602,404.143585 682.206360,418.468994 
	C682.094360,423.639435 683.909668,425.237579 688.851074,424.932220 
	C694.329346,424.593628 699.858826,425.103912 705.340576,424.794067 
	C709.847534,424.539307 711.477539,425.994232 711.401489,430.688110 
	C711.150269,446.182678 711.438904,461.685699 711.227051,477.181458 
	C711.168396,481.471069 712.338440,483.241974 716.848083,482.964050 
	C722.160034,482.636688 727.514404,483.059479 732.839966,482.868164 
	C736.870117,482.723450 738.430725,484.153412 738.377319,488.358490 
	C738.182861,503.688049 738.411987,519.023010 738.223450,534.352722 
	C738.173157,538.439880 739.395752,540.010376 743.611267,539.801941 
	C749.595642,539.506104 755.609009,539.850098 761.604797,539.706543 
	C764.961304,539.626221 766.360901,540.772827 766.355347,544.310730 
	C766.284607,589.306824 766.286682,634.303101 766.380249,679.299133 
	C766.388062,683.035339 764.967773,684.310242 761.380249,684.226501 
	C755.051270,684.078674 748.714783,684.278931 742.383667,684.183044 
	C739.389099,684.137756 738.210510,685.353210 738.269043,688.345886 
	C738.386353,694.342957 738.097351,700.352051 738.346375,706.340820 
	C738.514282,710.379822 737.211914,712.184143 732.987305,711.941528 
	C727.669983,711.636108 722.299866,712.008789 717.013245,711.480896 
	C712.471375,711.027344 711.029419,712.607910 711.275635,716.987366 
	C711.555786,721.971191 711.384399,726.983337 711.331543,731.982300 
	C711.234497,741.168945 712.858948,741.043701 702.043396,741.053894 
	C688.877869,741.066345 675.709106,741.205261 662.548523,740.945618 
	C657.890564,740.853760 655.838684,742.074768 656.213867,747.077271 
	C656.599060,752.213745 656.034363,757.417786 656.343201,762.564819 
	C656.614807,767.091980 654.712708,768.342468 650.484497,768.212341 
	C642.829773,767.976624 635.162231,768.160645 627.000000,768.170166 
M692.533386,484.940552 
	C691.536438,484.940247 690.539490,484.944214 689.542542,484.938995 
	C681.659851,484.897644 681.656189,484.897095 681.653381,477.005463 
	C681.648071,462.173431 681.493286,447.338928 681.735291,432.510864 
	C681.811829,427.824799 680.525940,425.798492 675.576477,426.150879 
	C670.602234,426.505066 665.577209,426.079742 660.585388,426.274933 
	C656.988159,426.415588 655.431580,425.191895 655.590210,421.419220 
	C655.807129,416.262909 655.449890,411.083038 655.646851,405.925049 
	C655.828308,401.172668 654.324890,398.849731 649.081665,399.218933 
	C643.443604,399.615906 637.740112,399.046234 632.094299,399.384430 
	C627.317566,399.670624 625.697266,398.003601 625.767395,393.167908 
	C625.997009,377.339783 625.725403,361.504822 625.881775,345.674805 
	C625.923950,341.399017 624.336243,340.183929 620.229858,340.485046 
	C614.592468,340.898468 608.912537,340.710663 603.252197,340.840759 
	C599.873962,340.918365 598.552979,339.426605 598.661621,335.997253 
	C598.856812,329.837341 598.543030,323.660095 598.779968,317.503113 
	C598.927368,313.672943 597.793335,312.069855 593.703735,312.274689 
	C587.719727,312.574371 581.700256,312.138336 575.712341,312.397003 
	C571.698975,312.570374 570.465881,311.005768 570.609131,307.158783 
	C570.838440,301.001587 570.542786,294.826324 570.688660,288.663940 
	C570.763611,285.497131 569.701782,284.183258 566.388794,284.193207 
	C531.558777,284.297882 496.728546,284.331573 461.898468,284.289368 
	C458.394501,284.285126 457.187592,285.683716 457.271759,289.061951 
	C457.416931,294.890808 456.995758,300.745209 457.367523,306.553375 
	C457.674713,311.352844 455.700745,312.620880 451.292999,312.393005 
	C445.808136,312.109467 440.280090,312.595032 434.803375,312.241669 
	C430.260681,311.948578 429.012604,313.722473 429.231293,318.010162 
	C429.536469,323.993439 429.187836,330.007172 429.320129,336.003387 
	C429.390411,339.189423 428.201538,340.508575 424.954498,340.438049 
	C418.624908,340.300537 412.287048,340.522888 405.958435,340.364624 
	C402.525024,340.278778 401.187500,341.547913 401.270477,345.033112 
	C401.437012,352.028198 401.189148,359.032867 401.336670,366.028839 
	C401.405762,369.305908 400.099365,370.440002 396.920502,370.369507 
	C390.590912,370.229095 384.243378,370.576294 377.927490,370.251221 
	C373.538147,370.025299 372.146851,371.489105 372.218048,375.903931 
	C372.459961,390.898773 372.196533,405.901489 372.406342,420.897278 
	C372.464752,425.072388 371.055054,426.473572 366.955536,426.277771 
	C361.302521,426.007904 355.622528,426.348175 349.961945,426.173462 
	C346.555359,426.068298 345.175995,427.228760 345.280518,430.773712 
	C345.481781,437.600311 345.240326,444.438904 345.362854,451.269287 
	C345.416992,454.289398 344.242767,455.425385 341.242218,455.361542 
	C334.912292,455.226776 328.566864,455.538788 322.248566,455.235016 
	C317.788910,455.020630 316.126495,456.324432 316.211670,461.084076 
	C316.491913,476.744232 316.225708,492.413422 316.368988,508.077332 
	C316.404449,511.953094 315.099945,513.467407 311.160583,513.297729 
	C305.671600,513.061218 300.153992,513.460144 294.667969,513.191956 
	C290.379944,512.982361 289.352997,514.712524 289.397980,518.784973 
	C289.567230,534.101562 289.317780,549.422363 289.360352,564.741272 
	C289.368835,567.796936 288.081757,568.932739 285.216827,568.928406 
	C279.051514,568.919067 272.871948,569.248474 266.725464,568.923584 
	C262.344421,568.691956 261.307648,570.473389 261.478455,574.449219 
	C261.899780,584.257324 262.209930,594.077881 262.228790,603.894043 
	C262.275177,628.055664 262.226532,652.218506 261.986572,676.378601 
	C261.938568,681.211304 263.182037,683.416870 268.439575,683.015320 
	C273.906555,682.597839 279.432495,683.010437 284.929901,682.910522 
	C288.101990,682.852905 289.429199,684.115601 289.338562,687.360168 
	C289.180359,693.021912 289.596954,698.712769 289.198242,704.350769 
	C288.858185,709.159607 290.534515,710.687378 295.308716,710.666931 
	C328.624451,710.524536 361.941284,710.556458 395.257294,710.673645 
	C399.212311,710.687561 400.523376,709.288452 400.427551,705.401001 
	C399.943176,685.756653 400.273529,666.114075 400.485565,646.464539 
	C400.843262,613.309204 400.405579,580.145325 400.316467,546.985046 
	C400.298035,540.123108 400.589294,539.824402 407.160248,539.823181 
	C477.819794,539.809631 548.479370,539.797241 619.138916,539.805969 
	C627.346558,539.807007 627.351807,539.866943 627.351868,547.866577 
	C627.352417,599.861877 627.349304,651.857117 627.351013,703.852417 
	C627.351257,710.557434 627.361633,710.626587 634.265198,710.582520 
	C640.759155,710.541077 647.266968,709.984863 653.742432,710.264404 
	C671.233948,711.019409 688.727112,710.195312 706.213013,710.642822 
	C709.434265,710.725281 710.724365,709.469666 710.651367,706.243652 
	C710.511902,700.080566 710.824707,693.900146 710.498657,687.750854 
	C710.293274,683.877319 711.774170,682.794556 715.369873,682.926025 
	C720.695190,683.120789 726.042908,682.762512 731.363403,683.013977 
	C735.471069,683.208191 736.991150,681.769836 736.852600,677.572937 
	C736.270081,659.932434 737.388367,642.299011 737.112000,624.643494 
	C736.720764,599.653076 737.079163,574.651306 737.044189,549.654541 
	C737.040344,546.879883 737.989685,544.036011 736.618347,540.989014 
	C729.891541,540.989014 723.091431,540.743286 716.318848,541.070190 
	C711.288208,541.312988 709.612732,539.485291 709.711121,534.456421 
	C709.984863,520.463013 709.810913,506.460938 709.821838,492.462280 
	C709.827698,484.917023 709.835205,484.915863 702.522644,484.923828 
	C699.522949,484.927094 696.523254,484.936432 692.533386,484.940552 
M592.451782,664.892212 
	C595.514648,658.010498 595.145569,650.557312 595.894287,643.318909 
	C597.584473,626.978638 592.624512,610.386414 598.346008,594.058838 
	C600.011169,589.307007 598.640991,583.482910 598.609070,578.150635 
	C598.599915,576.618103 597.996948,575.363098 596.915833,574.144531 
	C592.224304,568.856628 586.131409,568.278503 579.969910,569.707947 
	C576.275391,570.565002 573.123596,573.068542 573.019592,577.765564 
	C572.897827,583.266418 572.614258,588.642151 575.262939,593.862183 
	C579.236084,601.692383 579.787231,610.083191 578.437744,618.723572 
	C577.799866,622.807861 577.873779,627.014343 577.551086,631.130493 
	C576.668518,642.390381 582.855896,651.998230 584.245911,662.709839 
	C584.819885,667.133301 587.561157,667.767151 592.451782,664.892212 
M535.818542,601.121460 
	C534.000061,601.901428 532.061279,602.484558 530.390686,603.506348 
	C527.710693,605.145630 525.793152,607.472961 526.396179,610.886169 
	C527.087219,614.797791 532.394531,618.431580 536.657349,617.950806 
	C540.998840,617.461182 542.901611,614.867432 543.043091,610.540222 
	C543.270996,603.569641 542.377319,602.097717 535.818542,601.121460 
z"/>
</svg>